<mxfile host="Electron" agent="Mozilla/5.0 (Macintosh; Intel Mac OS X 10_15_7) AppleWebKit/537.36 (KHTML, like Gecko) draw.io/25.0.2 Chrome/128.0.6613.186 Electron/32.2.5 Safari/537.36" version="25.0.2">
  <diagram id="C5RBs43oDa-KdzZeNtuy" name="Page-1">
    <mxGraphModel dx="896" dy="677" grid="0" gridSize="10" guides="1" tooltips="1" connect="1" arrows="1" fold="1" page="1" pageScale="1" pageWidth="827" pageHeight="1169" math="0" shadow="0">
      <root>
        <mxCell id="WIyWlLk6GJQsqaUBKTNV-0" />
        <mxCell id="WIyWlLk6GJQsqaUBKTNV-1" parent="WIyWlLk6GJQsqaUBKTNV-0" />
        <mxCell id="j3p5YIvdQdXsIk-52rBE-0" value="Create issue" style="rounded=1;whiteSpace=wrap;html=1;" vertex="1" parent="WIyWlLk6GJQsqaUBKTNV-1">
          <mxGeometry x="367.01" y="180" width="96" height="30" as="geometry" />
        </mxCell>
        <mxCell id="j3p5YIvdQdXsIk-52rBE-1" value="" style="shape=waypoint;sketch=0;fillStyle=solid;size=6;pointerEvents=1;points=[];fillColor=none;resizable=0;rotatable=0;perimeter=centerPerimeter;snapToPoint=1;strokeWidth=6;" vertex="1" parent="WIyWlLk6GJQsqaUBKTNV-1">
          <mxGeometry x="405.63" y="140" width="20" height="20" as="geometry" />
        </mxCell>
        <mxCell id="j3p5YIvdQdXsIk-52rBE-2" value="" style="endArrow=classic;html=1;rounded=0;entryX=0.5;entryY=0;entryDx=0;entryDy=0;" edge="1" parent="WIyWlLk6GJQsqaUBKTNV-1" target="j3p5YIvdQdXsIk-52rBE-0">
          <mxGeometry width="50" height="50" relative="1" as="geometry">
            <mxPoint x="415" y="150" as="sourcePoint" />
            <mxPoint x="430" y="280" as="targetPoint" />
          </mxGeometry>
        </mxCell>
        <mxCell id="j3p5YIvdQdXsIk-52rBE-3" value="Issue added to &#39;Todo&#39;" style="rounded=1;whiteSpace=wrap;html=1;" vertex="1" parent="WIyWlLk6GJQsqaUBKTNV-1">
          <mxGeometry x="347.01" y="230" width="136" height="30" as="geometry" />
        </mxCell>
        <mxCell id="j3p5YIvdQdXsIk-52rBE-4" value="" style="endArrow=classic;html=1;rounded=0;exitX=0.5;exitY=1;exitDx=0;exitDy=0;entryX=0.5;entryY=0;entryDx=0;entryDy=0;" edge="1" parent="WIyWlLk6GJQsqaUBKTNV-1" source="j3p5YIvdQdXsIk-52rBE-0" target="j3p5YIvdQdXsIk-52rBE-3">
          <mxGeometry width="50" height="50" relative="1" as="geometry">
            <mxPoint x="380" y="330" as="sourcePoint" />
            <mxPoint x="430" y="280" as="targetPoint" />
          </mxGeometry>
        </mxCell>
        <mxCell id="j3p5YIvdQdXsIk-52rBE-8" value="" style="endArrow=classic;html=1;rounded=0;exitX=0.5;exitY=1;exitDx=0;exitDy=0;entryX=0.5;entryY=0;entryDx=0;entryDy=0;" edge="1" parent="WIyWlLk6GJQsqaUBKTNV-1" source="j3p5YIvdQdXsIk-52rBE-3" target="j3p5YIvdQdXsIk-52rBE-9">
          <mxGeometry width="50" height="50" relative="1" as="geometry">
            <mxPoint x="380" y="320" as="sourcePoint" />
            <mxPoint x="414" y="220" as="targetPoint" />
          </mxGeometry>
        </mxCell>
        <mxCell id="j3p5YIvdQdXsIk-52rBE-9" value="Assign responsible" style="rounded=1;whiteSpace=wrap;html=1;" vertex="1" parent="WIyWlLk6GJQsqaUBKTNV-1">
          <mxGeometry x="355.01" y="280" width="120" height="30" as="geometry" />
        </mxCell>
        <mxCell id="j3p5YIvdQdXsIk-52rBE-12" value="Move to &#39;In Progress&#39;" style="rounded=1;whiteSpace=wrap;html=1;" vertex="1" parent="WIyWlLk6GJQsqaUBKTNV-1">
          <mxGeometry x="348.01" y="330" width="134" height="30" as="geometry" />
        </mxCell>
        <mxCell id="j3p5YIvdQdXsIk-52rBE-13" value="" style="endArrow=classic;html=1;rounded=0;exitX=0.5;exitY=1;exitDx=0;exitDy=0;entryX=0.5;entryY=0;entryDx=0;entryDy=0;" edge="1" parent="WIyWlLk6GJQsqaUBKTNV-1" source="j3p5YIvdQdXsIk-52rBE-9" target="j3p5YIvdQdXsIk-52rBE-12">
          <mxGeometry width="50" height="50" relative="1" as="geometry">
            <mxPoint x="440" y="380" as="sourcePoint" />
            <mxPoint x="490" y="330" as="targetPoint" />
          </mxGeometry>
        </mxCell>
        <mxCell id="j3p5YIvdQdXsIk-52rBE-14" value="Create branch for issue" style="rounded=1;whiteSpace=wrap;html=1;" vertex="1" parent="WIyWlLk6GJQsqaUBKTNV-1">
          <mxGeometry x="347.01" y="380" width="136" height="30" as="geometry" />
        </mxCell>
        <mxCell id="j3p5YIvdQdXsIk-52rBE-15" value="" style="endArrow=classic;html=1;rounded=0;exitX=0.5;exitY=1;exitDx=0;exitDy=0;entryX=0.5;entryY=0;entryDx=0;entryDy=0;" edge="1" parent="WIyWlLk6GJQsqaUBKTNV-1" source="j3p5YIvdQdXsIk-52rBE-12" target="j3p5YIvdQdXsIk-52rBE-14">
          <mxGeometry width="50" height="50" relative="1" as="geometry">
            <mxPoint x="440" y="380" as="sourcePoint" />
            <mxPoint x="490" y="330" as="targetPoint" />
          </mxGeometry>
        </mxCell>
        <mxCell id="j3p5YIvdQdXsIk-52rBE-16" value="Work on issue" style="rounded=1;whiteSpace=wrap;html=1;" vertex="1" parent="WIyWlLk6GJQsqaUBKTNV-1">
          <mxGeometry x="367.01" y="430" width="96" height="30" as="geometry" />
        </mxCell>
        <mxCell id="j3p5YIvdQdXsIk-52rBE-17" value="" style="endArrow=classic;html=1;rounded=0;exitX=0.5;exitY=1;exitDx=0;exitDy=0;entryX=0.5;entryY=0;entryDx=0;entryDy=0;" edge="1" parent="WIyWlLk6GJQsqaUBKTNV-1" source="j3p5YIvdQdXsIk-52rBE-14" target="j3p5YIvdQdXsIk-52rBE-16">
          <mxGeometry width="50" height="50" relative="1" as="geometry">
            <mxPoint x="440" y="380" as="sourcePoint" />
            <mxPoint x="490" y="330" as="targetPoint" />
          </mxGeometry>
        </mxCell>
        <mxCell id="j3p5YIvdQdXsIk-52rBE-19" value="" style="endArrow=classic;html=1;rounded=0;exitX=0.5;exitY=1;exitDx=0;exitDy=0;entryX=0.5;entryY=0;entryDx=0;entryDy=0;" edge="1" parent="WIyWlLk6GJQsqaUBKTNV-1" source="j3p5YIvdQdXsIk-52rBE-16" target="j3p5YIvdQdXsIk-52rBE-67">
          <mxGeometry width="50" height="50" relative="1" as="geometry">
            <mxPoint x="440" y="410" as="sourcePoint" />
            <mxPoint x="415" y="480" as="targetPoint" />
          </mxGeometry>
        </mxCell>
        <mxCell id="j3p5YIvdQdXsIk-52rBE-20" value="" style="endArrow=classic;html=1;rounded=0;exitX=1;exitY=0.5;exitDx=0;exitDy=0;exitPerimeter=0;entryX=1;entryY=0.75;entryDx=0;entryDy=0;" edge="1" parent="WIyWlLk6GJQsqaUBKTNV-1" source="j3p5YIvdQdXsIk-52rBE-58" target="j3p5YIvdQdXsIk-52rBE-16">
          <mxGeometry width="50" height="50" relative="1" as="geometry">
            <mxPoint x="490" y="480" as="sourcePoint" />
            <mxPoint x="463" y="463" as="targetPoint" />
            <Array as="points">
              <mxPoint x="520" y="545" />
              <mxPoint x="520" y="453" />
            </Array>
          </mxGeometry>
        </mxCell>
        <mxCell id="j3p5YIvdQdXsIk-52rBE-21" value="Failure" style="text;html=1;align=center;verticalAlign=middle;whiteSpace=wrap;rounded=0;" vertex="1" parent="WIyWlLk6GJQsqaUBKTNV-1">
          <mxGeometry x="432.5" y="520" width="93" height="30" as="geometry" />
        </mxCell>
        <mxCell id="j3p5YIvdQdXsIk-52rBE-22" value="Create/Update pull request" style="rounded=1;whiteSpace=wrap;html=1;" vertex="1" parent="WIyWlLk6GJQsqaUBKTNV-1">
          <mxGeometry x="355.01" y="584.5" width="120" height="30" as="geometry" />
        </mxCell>
        <mxCell id="j3p5YIvdQdXsIk-52rBE-23" value="" style="endArrow=classic;html=1;rounded=0;exitX=0.5;exitY=1;exitDx=0;exitDy=0;exitPerimeter=0;entryX=0.5;entryY=0;entryDx=0;entryDy=0;" edge="1" parent="WIyWlLk6GJQsqaUBKTNV-1" source="j3p5YIvdQdXsIk-52rBE-58" target="j3p5YIvdQdXsIk-52rBE-22">
          <mxGeometry width="50" height="50" relative="1" as="geometry">
            <mxPoint x="440" y="440" as="sourcePoint" />
            <mxPoint x="415" y="570" as="targetPoint" />
          </mxGeometry>
        </mxCell>
        <mxCell id="j3p5YIvdQdXsIk-52rBE-24" value="Success" style="text;html=1;align=center;verticalAlign=middle;whiteSpace=wrap;rounded=0;" vertex="1" parent="WIyWlLk6GJQsqaUBKTNV-1">
          <mxGeometry x="424.38" y="560" width="46" height="20" as="geometry" />
        </mxCell>
        <mxCell id="j3p5YIvdQdXsIk-52rBE-26" value="" style="endArrow=classic;html=1;rounded=0;exitX=1;exitY=0.5;exitDx=0;exitDy=0;exitPerimeter=0;entryX=1;entryY=0.25;entryDx=0;entryDy=0;" edge="1" parent="WIyWlLk6GJQsqaUBKTNV-1" source="j3p5YIvdQdXsIk-52rBE-61" target="j3p5YIvdQdXsIk-52rBE-16">
          <mxGeometry width="50" height="50" relative="1" as="geometry">
            <mxPoint x="482" y="585" as="sourcePoint" />
            <mxPoint x="463" y="440" as="targetPoint" />
            <Array as="points">
              <mxPoint x="540" y="655" />
              <mxPoint x="540" y="438" />
            </Array>
          </mxGeometry>
        </mxCell>
        <mxCell id="j3p5YIvdQdXsIk-52rBE-27" value="" style="endArrow=classic;html=1;rounded=0;exitX=0.5;exitY=1;exitDx=0;exitDy=0;entryX=0.5;entryY=0;entryDx=0;entryDy=0;entryPerimeter=0;" edge="1" parent="WIyWlLk6GJQsqaUBKTNV-1" source="j3p5YIvdQdXsIk-52rBE-22" target="j3p5YIvdQdXsIk-52rBE-61">
          <mxGeometry width="50" height="50" relative="1" as="geometry">
            <mxPoint x="414" y="670" as="sourcePoint" />
            <mxPoint x="415" y="580" as="targetPoint" />
          </mxGeometry>
        </mxCell>
        <mxCell id="j3p5YIvdQdXsIk-52rBE-28" value="Not approved" style="text;html=1;align=center;verticalAlign=middle;whiteSpace=wrap;rounded=0;" vertex="1" parent="WIyWlLk6GJQsqaUBKTNV-1">
          <mxGeometry x="455" y="630" width="75" height="30" as="geometry" />
        </mxCell>
        <mxCell id="j3p5YIvdQdXsIk-52rBE-29" value="Merge into main" style="rounded=1;whiteSpace=wrap;html=1;" vertex="1" parent="WIyWlLk6GJQsqaUBKTNV-1">
          <mxGeometry x="365" y="690" width="100" height="30" as="geometry" />
        </mxCell>
        <mxCell id="j3p5YIvdQdXsIk-52rBE-30" value="" style="endArrow=classic;html=1;rounded=0;entryX=0.5;entryY=0;entryDx=0;entryDy=0;exitX=0.5;exitY=1;exitDx=0;exitDy=0;exitPerimeter=0;" edge="1" parent="WIyWlLk6GJQsqaUBKTNV-1" source="j3p5YIvdQdXsIk-52rBE-61" target="j3p5YIvdQdXsIk-52rBE-29">
          <mxGeometry width="50" height="50" relative="1" as="geometry">
            <mxPoint x="415" y="630" as="sourcePoint" />
            <mxPoint x="320" y="440" as="targetPoint" />
          </mxGeometry>
        </mxCell>
        <mxCell id="j3p5YIvdQdXsIk-52rBE-31" value="Approved&amp;nbsp;" style="text;html=1;align=center;verticalAlign=middle;whiteSpace=wrap;rounded=0;" vertex="1" parent="WIyWlLk6GJQsqaUBKTNV-1">
          <mxGeometry x="420.62" y="660" width="65.99" height="30" as="geometry" />
        </mxCell>
        <mxCell id="j3p5YIvdQdXsIk-52rBE-32" value="Close issue and move to &#39;Done&#39;" style="rounded=1;whiteSpace=wrap;html=1;" vertex="1" parent="WIyWlLk6GJQsqaUBKTNV-1">
          <mxGeometry x="355.01" y="740" width="120" height="30" as="geometry" />
        </mxCell>
        <mxCell id="j3p5YIvdQdXsIk-52rBE-33" value="" style="endArrow=classic;html=1;rounded=0;exitX=0.5;exitY=1;exitDx=0;exitDy=0;entryX=0.5;entryY=0;entryDx=0;entryDy=0;" edge="1" parent="WIyWlLk6GJQsqaUBKTNV-1" source="j3p5YIvdQdXsIk-52rBE-29" target="j3p5YIvdQdXsIk-52rBE-32">
          <mxGeometry width="50" height="50" relative="1" as="geometry">
            <mxPoint x="380" y="350" as="sourcePoint" />
            <mxPoint x="415" y="680" as="targetPoint" />
          </mxGeometry>
        </mxCell>
        <mxCell id="j3p5YIvdQdXsIk-52rBE-37" value="" style="ellipse;whiteSpace=wrap;html=1;aspect=fixed;" vertex="1" parent="WIyWlLk6GJQsqaUBKTNV-1">
          <mxGeometry x="405.63" y="790" width="18.75" height="18.75" as="geometry" />
        </mxCell>
        <mxCell id="j3p5YIvdQdXsIk-52rBE-38" value="" style="ellipse;whiteSpace=wrap;html=1;aspect=fixed;fillColor=#000000;" vertex="1" parent="WIyWlLk6GJQsqaUBKTNV-1">
          <mxGeometry x="409.37" y="793.75" width="11.25" height="11.25" as="geometry" />
        </mxCell>
        <mxCell id="j3p5YIvdQdXsIk-52rBE-41" value="" style="endArrow=classic;html=1;rounded=0;entryX=0.5;entryY=0;entryDx=0;entryDy=0;exitX=0.5;exitY=1;exitDx=0;exitDy=0;" edge="1" parent="WIyWlLk6GJQsqaUBKTNV-1" source="j3p5YIvdQdXsIk-52rBE-32" target="j3p5YIvdQdXsIk-52rBE-37">
          <mxGeometry width="50" height="50" relative="1" as="geometry">
            <mxPoint x="380" y="350" as="sourcePoint" />
            <mxPoint x="430" y="300" as="targetPoint" />
            <Array as="points" />
          </mxGeometry>
        </mxCell>
        <mxCell id="j3p5YIvdQdXsIk-52rBE-58" value="" style="strokeWidth=1;html=1;shape=mxgraph.flowchart.decision;whiteSpace=wrap;" vertex="1" parent="WIyWlLk6GJQsqaUBKTNV-1">
          <mxGeometry x="397.49" y="530" width="35.01" height="30" as="geometry" />
        </mxCell>
        <mxCell id="j3p5YIvdQdXsIk-52rBE-61" value="" style="strokeWidth=1;html=1;shape=mxgraph.flowchart.decision;whiteSpace=wrap;" vertex="1" parent="WIyWlLk6GJQsqaUBKTNV-1">
          <mxGeometry x="397.52" y="640" width="34.98" height="30" as="geometry" />
        </mxCell>
        <mxCell id="j3p5YIvdQdXsIk-52rBE-67" value="Write/Run tests" style="rounded=1;whiteSpace=wrap;html=1;" vertex="1" parent="WIyWlLk6GJQsqaUBKTNV-1">
          <mxGeometry x="364.99" y="480" width="100.01" height="30" as="geometry" />
        </mxCell>
        <mxCell id="j3p5YIvdQdXsIk-52rBE-68" value="" style="endArrow=classic;html=1;rounded=0;exitX=0.5;exitY=1;exitDx=0;exitDy=0;entryX=0.5;entryY=0;entryDx=0;entryDy=0;entryPerimeter=0;" edge="1" parent="WIyWlLk6GJQsqaUBKTNV-1" source="j3p5YIvdQdXsIk-52rBE-67" target="j3p5YIvdQdXsIk-52rBE-58">
          <mxGeometry width="50" height="50" relative="1" as="geometry">
            <mxPoint x="390" y="580" as="sourcePoint" />
            <mxPoint x="440" y="530" as="targetPoint" />
          </mxGeometry>
        </mxCell>
      </root>
    </mxGraphModel>
  </diagram>
</mxfile>
